<svg id="visual" viewBox="0 0 1024 828" width="1024" height="828" xmlns="http://www.w3.org/2000/svg" xmlns:xlink="http://www.w3.org/1999/xlink" version="1.1"><rect x="0" y="0" width="1024" height="828" fill="#ffffff"></rect><defs><linearGradient id="grad1_0" x1="19.1%" y1="0%" x2="100%" y2="100%"><stop offset="25.265700483091788%" stop-color="#44891c" stop-opacity="1"></stop><stop offset="74.73429951690821%" stop-color="#44891c" stop-opacity="1"></stop></linearGradient></defs><defs><linearGradient id="grad1_1" x1="19.1%" y1="0%" x2="100%" y2="100%"><stop offset="25.265700483091788%" stop-color="#44891c" stop-opacity="1"></stop><stop offset="74.73429951690821%" stop-color="#ffffff" stop-opacity="1"></stop></linearGradient></defs><defs><linearGradient id="grad2_0" x1="0%" y1="0%" x2="80.9%" y2="100%"><stop offset="25.265700483091788%" stop-color="#44891c" stop-opacity="1"></stop><stop offset="74.73429951690821%" stop-color="#44891c" stop-opacity="1"></stop></linearGradient></defs><defs><linearGradient id="grad2_1" x1="0%" y1="0%" x2="80.9%" y2="100%"><stop offset="25.265700483091788%" stop-color="#ffffff" stop-opacity="1"></stop><stop offset="74.73429951690821%" stop-color="#44891c" stop-opacity="1"></stop></linearGradient></defs><g transform="translate(1024, 0)"><path d="M0 493.8C-63.6 442.2 -127.1 390.6 -205.5 355.9C-283.9 321.2 -377.1 303.4 -427.7 246.9C-478.2 190.4 -486 95.2 -493.8 0L0 0Z" fill="#a4c38d"></path><path d="M0 246.9C-31.8 221.1 -63.6 195.3 -102.7 178C-141.9 160.6 -188.6 151.7 -213.8 123.5C-239.1 95.2 -243 47.6 -246.9 0L0 0Z" fill="#44891c"></path></g><g transform="translate(0, 828)"><path d="M0 -493.8C47.6 -414.5 95.1 -335.2 175.5 -304C255.9 -272.7 369.1 -289.6 427.7 -246.9C486.2 -204.3 490 -102.1 493.8 0L0 0Z" fill="#a4c38d"></path><path d="M0 -246.9C23.8 -207.3 47.6 -167.6 87.7 -152C127.9 -136.4 184.6 -144.8 213.8 -123.5C243.1 -102.1 245 -51.1 246.9 0L0 0Z" fill="#44891c"></path></g></svg>