<svg id="visual" viewBox="0 0 1024 828" width="1024" height="828" xmlns="http://www.w3.org/2000/svg" xmlns:xlink="http://www.w3.org/1999/xlink" version="1.1"><rect x="0" y="0" width="1024" height="828" fill="#FFFFFF"></rect><path d="M0 479L13.2 476.7C26.3 474.3 52.7 469.7 79 489.2C105.3 508.7 131.7 552.3 157.8 574.7C184 597 210 598 236.2 583.7C262.3 569.3 288.7 539.7 315 528.8C341.3 518 367.7 526 394 544.8C420.3 563.7 446.7 593.3 472.8 596.7C499 600 525 577 551.2 555.3C577.3 533.7 603.7 513.3 630 501C656.3 488.7 682.7 484.3 709 491.8C735.3 499.3 761.7 518.7 787.8 525.5C814 532.3 840 526.7 866.2 516.5C892.3 506.3 918.7 491.7 945 487.7C971.3 483.7 997.7 490.3 1010.8 493.7L1024 497L1024 829L1010.8 829C997.7 829 971.3 829 945 829C918.7 829 892.3 829 866.2 829C840 829 814 829 787.8 829C761.7 829 735.3 829 709 829C682.7 829 656.3 829 630 829C603.7 829 577.3 829 551.2 829C525 829 499 829 472.8 829C446.7 829 420.3 829 394 829C367.7 829 341.3 829 315 829C288.7 829 262.3 829 236.2 829C210 829 184 829 157.8 829C131.7 829 105.3 829 79 829C52.7 829 26.3 829 13.2 829L0 829Z" fill="#1d8c1d" stroke-linecap="round" stroke-linejoin="miter"></path></svg>